<?xml version="1.0" encoding="UTF-8" standalone="no"?>
<!DOCTYPE svg PUBLIC "-//W3C//DTD SVG 1.1//EN"
 "http://www.w3.org/Graphics/SVG/1.1/DTD/svg11.dtd">
<!-- Generated by graphviz version 14.1.2 (0)
 -->
<!-- Title: sourcetree Pages: 1 -->
<svg width="705pt" height="260pt"
 viewBox="0.00 0.00 705.00 260.00" xmlns="http://www.w3.org/2000/svg" xmlns:xlink="http://www.w3.org/1999/xlink">
<g id="graph0" class="graph" transform="scale(1 1) rotate(0) translate(4 256)">
<title>sourcetree</title>
<polygon fill="white" stroke="none" points="-4,4 -4,-256 700.75,-256 700.75,4 -4,4"/>
<!-- MulleObjCPlistFoundation -->
<g id="node1" class="node">
<title>MulleObjCPlistFoundation</title>
<polygon fill="yellow" stroke="black" points="466.38,-252 262.12,-252 262.12,-216 466.38,-216 466.38,-252"/>
<text xml:space="preserve" text-anchor="middle" x="364.25" y="-229.32" font-family="Times,serif" font-size="14.00">MulleObjCPlistFoundation</text>
</g>
<!-- MulleObjCStandardFoundation -->
<g id="node4" class="node">
<title>MulleObjCStandardFoundation</title>
<g id="a_node4"><a xlink:href="https://github.com/MulleFoundation/MulleObjCStandardFoundation" xlink:title="MulleObjCStandardFoundation">
<polygon fill="lightgrey" stroke="black" points="483.25,-180 245.25,-180 245.25,-144 483.25,-144 483.25,-180"/>
<text xml:space="preserve" text-anchor="middle" x="364.25" y="-157.32" font-family="Times,serif" font-size="14.00">MulleObjCStandardFoundation</text>
</a>
</g>
</g>
<!-- MulleObjCPlistFoundation&#45;&gt;MulleObjCStandardFoundation -->
<g id="edge1" class="edge">
<title>MulleObjCPlistFoundation&#45;&gt;MulleObjCStandardFoundation</title>
<path fill="none" stroke="black" d="M364.25,-215.7C364.25,-208.41 364.25,-199.73 364.25,-191.54"/>
<polygon fill="black" stroke="black" points="367.75,-191.62 364.25,-181.62 360.75,-191.62 367.75,-191.62"/>
</g>
<!-- MulleObjCContainerFoundation -->
<g id="node2" class="node">
<title>MulleObjCContainerFoundation</title>
<g id="a_node2"><a xlink:href="https://github.com/MulleFoundation/MulleObjCContainerFoundation" xlink:title="MulleObjCContainerFoundation">
<polygon fill="lightgrey" stroke="black" points="242.5,-108 0,-108 0,-72 242.5,-72 242.5,-108"/>
<text xml:space="preserve" text-anchor="middle" x="121.25" y="-85.33" font-family="Times,serif" font-size="14.00">MulleObjCContainerFoundation</text>
</a>
</g>
</g>
<!-- MulleObjC -->
<g id="node3" class="node">
<title>MulleObjC</title>
<g id="a_node3"><a xlink:href="https://github.com/mulle-objc/MulleObjC" xlink:title="MulleObjC">
<polygon fill="lightgrey" stroke="black" points="410.12,-36 318.38,-36 318.38,0 410.12,0 410.12,-36"/>
<text xml:space="preserve" text-anchor="middle" x="364.25" y="-13.32" font-family="Times,serif" font-size="14.00">MulleObjC</text>
</a>
</g>
</g>
<!-- MulleObjCStandardFoundation&#45;&gt;MulleObjCContainerFoundation -->
<g id="edge2" class="edge">
<title>MulleObjCStandardFoundation&#45;&gt;MulleObjCContainerFoundation</title>
<path fill="none" stroke="black" d="M303.56,-143.52C269.8,-133.79 227.6,-121.64 192.3,-111.47"/>
<polygon fill="black" stroke="black" points="193.62,-108.21 183.04,-108.8 191.68,-114.93 193.62,-108.21"/>
</g>
<!-- MulleObjCTimeFoundation -->
<g id="node5" class="node">
<title>MulleObjCTimeFoundation</title>
<g id="a_node5"><a xlink:href="https://github.com/MulleFoundation/MulleObjCTimeFoundation" xlink:title="MulleObjCTimeFoundation">
<polygon fill="lightgrey" stroke="black" points="467.88,-108 260.62,-108 260.62,-72 467.88,-72 467.88,-108"/>
<text xml:space="preserve" text-anchor="middle" x="364.25" y="-85.33" font-family="Times,serif" font-size="14.00">MulleObjCTimeFoundation</text>
</a>
</g>
</g>
<!-- MulleObjCStandardFoundation&#45;&gt;MulleObjCTimeFoundation -->
<g id="edge3" class="edge">
<title>MulleObjCStandardFoundation&#45;&gt;MulleObjCTimeFoundation</title>
<path fill="none" stroke="black" d="M364.25,-143.7C364.25,-136.41 364.25,-127.73 364.25,-119.54"/>
<polygon fill="black" stroke="black" points="367.75,-119.62 364.25,-109.62 360.75,-119.62 367.75,-119.62"/>
</g>
<!-- MulleObjCValueFoundation -->
<g id="node6" class="node">
<title>MulleObjCValueFoundation</title>
<g id="a_node6"><a xlink:href="https://github.com/MulleFoundation/MulleObjCValueFoundation" xlink:title="MulleObjCValueFoundation">
<polygon fill="lightgrey" stroke="black" points="696.75,-108 485.75,-108 485.75,-72 696.75,-72 696.75,-108"/>
<text xml:space="preserve" text-anchor="middle" x="591.25" y="-85.33" font-family="Times,serif" font-size="14.00">MulleObjCValueFoundation</text>
</a>
</g>
</g>
<!-- MulleObjCStandardFoundation&#45;&gt;MulleObjCValueFoundation -->
<g id="edge4" class="edge">
<title>MulleObjCStandardFoundation&#45;&gt;MulleObjCValueFoundation</title>
<path fill="none" stroke="black" d="M420.95,-143.52C452.21,-133.88 491.23,-121.84 524.02,-111.73"/>
<polygon fill="black" stroke="black" points="524.91,-115.12 533.44,-108.83 522.85,-108.43 524.91,-115.12"/>
</g>
<!-- MulleObjCTimeFoundation&#45;&gt;MulleObjC -->
<g id="edge5" class="edge">
<title>MulleObjCTimeFoundation&#45;&gt;MulleObjC</title>
<path fill="none" stroke="black" d="M364.25,-71.7C364.25,-64.41 364.25,-55.73 364.25,-47.54"/>
<polygon fill="black" stroke="black" points="367.75,-47.62 364.25,-37.62 360.75,-47.62 367.75,-47.62"/>
</g>
</g>
</svg>
